<svg width="86" height="60" viewBox="0 0 86 60" fill="none" xmlns="http://www.w3.org/2000/svg">
<mask id="mask0_1_12172" style="mask-type:alpha" maskUnits="userSpaceOnUse" x="0" y="0" width="86" height="60">
<rect width="86" height="60" fill="white"/>
</mask>
<g mask="url(#mask0_1_12172)">
<path opacity="0.75" d="M84.0917 9.38233C83.0898 5.684 80.1999 2.78799 76.4952 1.79883C71.519 -0.11902 23.3201 -1.05871 9.33825 1.85379C5.63361 2.85393 2.73265 5.73895 1.74181 9.43728C-0.5041 19.2738 -0.674745 40.5406 1.79685 50.597C2.7987 54.2953 5.68865 57.1913 9.3933 58.1805C19.2467 60.4445 66.0914 60.7633 76.5503 58.1805C80.2549 57.1803 83.1559 54.2953 84.1467 50.597C86.5413 39.8812 86.7119 19.9333 84.0917 9.38233Z" fill="#FF0000"/>
<path d="M57.1192 29.9896L34.6602 17.1306V42.8486L57.1192 29.9896Z" fill="white"/>
</g>
</svg>
